# xmcd CD database file
#
# Track frame offsets:
#	150
#	13539
#	27994
#	42957
#	55057
#	66510
#	79070
#	92201
#	106816
#	118213
#	130063
#	143508
#
# Disc length: 2091 seconds
#
# Revision: 0
# Processed by: cddbd v1.5.1PL0 Copyright (c) Steve Scherf et al.
# Submitted via: CDex 1.51
#
DISCID=9d08290c
DTITLE=Django Reinhardt and Stephane Grappelly - Parisian Swing
DYEAR=1965
DGENRE=Jazz
TTITLE0=Chasing Shadows
TTITLE1=The Man I love
TTITLE2=Ultrafox
TTITLE3=Improvisation
TTITLE4=Undecided
TTITLE5=Please Be Kind
TTITLE6=Djangology
TTITLE7=Nocturne
TTITLE8=I've Got Love To Keep Me Warm
TTITLE9=Louise
TTITLE10=Don't Worry 'Bout Me
TTITLE11=I've Had My Moments
EXTD=YEAR: 1965
EXTT0=
EXTT1=
EXTT2=
EXTT3=
EXTT4=
EXTT5=
EXTT6=
EXTT7=
EXTT8=
EXTT9=
EXTT10=
EXTT11=
PLAYORDER=
